<svg xmlns="http://www.w3.org/2000/svg" viewBox="0 0 512 512" width="100%" height="100%">
  <defs>
    <linearGradient id="neonGlow" x1="0%" y1="0%" x2="100%" y2="100%">
      <stop offset="0%" stop-color="#00ffc3" />
      <stop offset="100%" stop-color="#00aaff" />
    </linearGradient>
    
    <filter id="shadow" x="-10%" y="-10%" width="120%" height="120%">
      <feDropShadow dx="0" dy="8" stdDeviation="12" flood-color="#00ffc3" flood-opacity="0.25"/>
    </filter>
  </defs>

  <rect width="512" height="512" rx="128" fill="#111113" />
  
  <path d="M256,50 L425,148 L425,344 L256,442 L87,344 L87,148 Z" 
        fill="none" 
        stroke="url(#neonGlow)" 
        stroke-width="16" 
        stroke-opacity="0.15" />

  <g filter="url(#shadow)">
    <path d="M256,90 L390,167 L390,323 L256,400 L122,323 L122,167 Z" 
          fill="#1c1c1f" 
          stroke="url(#neonGlow)" 
          stroke-width="24" 
          stroke-linejoin="round" />

    <path d="M256,160 C203,160 160,203 160,256 C160,309 203,352 256,352 C278,352 298,344 314,332 L355,373" 
          fill="none" 
          stroke="url(#neonGlow)" 
          stroke-width="28" 
          stroke-linecap="round" 
          stroke-linejoin="round" />
          
    <circle cx="256" cy="256" r="32" fill="url(#neonGlow)" />
  </g>
</svg>
